<?xml version="1.0" encoding="UTF-8" standalone="no"?>
<!DOCTYPE svg PUBLIC "-//W3C//DTD SVG 1.1//EN" "http://www.w3.org/Graphics/SVG/1.1/DTD/svg11.dtd">
<svg width="100%" height="100%" viewBox="0 0 1024 1024" version="1.1" xmlns="http://www.w3.org/2000/svg" xmlns:xlink="http://www.w3.org/1999/xlink" xml:space="preserve" xmlns:serif="http://www.serif.com/" style="fill-rule:evenodd;clip-rule:evenodd;stroke-linecap:round;stroke-linejoin:round;stroke-miterlimit:1.5;">
    <path d="M1024,153.884C1024,68.953 955.047,0 870.116,0L153.884,0C68.953,0 0,68.953 0,153.884L0,870.116C0,955.047 68.953,1024 153.884,1024L870.116,1024C955.047,1024 1024,955.047 1024,870.116L1024,153.884Z" style="fill:rgb(62,142,208);"/>
    <g transform="matrix(0.884142,0,0,0.884142,59.3191,59.3191)">
        <g transform="matrix(1.50356,0,0,1.41225,-195.396,-226.097)">
            <rect x="222.587" y="217.624" width="495.789" height="610.029" style="fill:none;stroke:white;stroke-width:34.12px;"/>
        </g>
        <g transform="matrix(1.52537,0,0,1.42678,-200.3,-221.91)">
            <path d="M222.62,517.488L588.085,212.473L222.62,212.473L222.62,517.488Z" style="fill:none;stroke:white;stroke-width:33.7px;"/>
        </g>
        <g transform="matrix(1.52537,0,0,1.42678,-200.3,-221.91)">
            <path d="M302.61,212.473L711.321,527.084L711.321,212.473L273.458,575.88" style="fill:none;stroke:white;stroke-width:33.7px;"/>
        </g>
        <g transform="matrix(1.52537,0,0,1.42678,-200.3,-221.91)">
            <path d="M711.321,212.473L273.458,575.88L437.926,693.07" style="fill:none;stroke:white;stroke-width:33.7px;"/>
        </g>
        <g transform="matrix(1.52537,0,0,1.42678,-200.3,-221.91)">
            <path d="M512,634.761L343.814,517.488" style="fill:none;stroke:white;stroke-width:33.7px;"/>
        </g>
        <g transform="matrix(1.52537,0,0,1.42678,-200.3,-221.91)">
            <path d="M711.321,588.547L433.03,816.29" style="fill:none;stroke:white;stroke-width:33.7px;"/>
        </g>
        <g transform="matrix(1.52537,0,0,1.42678,-200.3,-221.91)">
            <path d="M591.551,686.563L711.321,767.686" style="fill:none;stroke:white;stroke-width:33.7px;"/>
        </g>
        <g transform="matrix(1.52537,0,0,1.42678,-200.3,-221.91)">
            <path d="M679.705,502.747L281.391,816.29" style="fill:none;stroke:white;stroke-width:33.7px;"/>
        </g>
    </g>
</svg>
