<?xml version="1.0" encoding="UTF-8" standalone="no"?>
<!DOCTYPE svg PUBLIC "-//W3C//DTD SVG 1.1//EN" "http://www.w3.org/Graphics/SVG/1.1/DTD/svg11.dtd">
<svg width="100%" height="100%" viewBox="0 0 180 28" version="1.1" xmlns="http://www.w3.org/2000/svg" xmlns:xlink="http://www.w3.org/1999/xlink" xml:space="preserve" xmlns:serif="http://www.serif.com/" style="fill-rule:evenodd;clip-rule:evenodd;stroke-linecap:round;stroke-linejoin:round;stroke-miterlimit:1.5;">
    <g transform="matrix(0.0275012,0,0,0.0275012,-2.23996,-1.28464)">
        <g transform="matrix(1.50356,0,0,1.41225,-195.396,-226.097)">
            <rect x="222.587" y="217.624" width="495.789" height="610.029" style="fill:none;stroke:white;stroke-width:34.12px;"/>
        </g>
        <g transform="matrix(1.52537,0,0,1.42678,-200.3,-221.91)">
            <path d="M222.62,517.488L588.085,212.473L222.62,212.473L222.62,517.488Z" style="fill:none;stroke:white;stroke-width:33.7px;"/>
        </g>
        <g transform="matrix(1.52537,0,0,1.42678,-200.3,-221.91)">
            <path d="M302.61,212.473L711.321,527.084L711.321,212.473L273.458,575.88" style="fill:none;stroke:white;stroke-width:33.7px;"/>
        </g>
        <g transform="matrix(1.52537,0,0,1.42678,-200.3,-221.91)">
            <path d="M711.321,212.473L273.458,575.88L437.926,693.07" style="fill:none;stroke:white;stroke-width:33.7px;"/>
        </g>
        <g transform="matrix(1.52537,0,0,1.42678,-200.3,-221.91)">
            <path d="M512,634.761L343.814,517.488" style="fill:none;stroke:white;stroke-width:33.7px;"/>
        </g>
        <g transform="matrix(1.52537,0,0,1.42678,-200.3,-221.91)">
            <path d="M711.321,588.547L433.03,816.29" style="fill:none;stroke:white;stroke-width:33.7px;"/>
        </g>
        <g transform="matrix(1.52537,0,0,1.42678,-200.3,-221.91)">
            <path d="M591.551,686.563L711.321,767.686" style="fill:none;stroke:white;stroke-width:33.7px;"/>
        </g>
        <g transform="matrix(1.52537,0,0,1.42678,-200.3,-221.91)">
            <path d="M679.705,502.747L281.391,816.29" style="fill:none;stroke:white;stroke-width:33.7px;"/>
        </g>
    </g>
    <g transform="matrix(2.42712,0,0,2.42712,36.3254,23.3456)">
        <g>
            <path d="M5.628,-0.156C5.688,0.012 5.844,0.12 6.012,0.12C6.24,0.12 6.42,-0.084 6.42,-0.288C6.42,-0.336 6.408,-0.372 6.396,-0.42L3.756,-8.22C3.696,-8.4 3.504,-8.532 3.3,-8.532C3.096,-8.532 2.904,-8.4 2.844,-8.22L0.204,-0.42C0.192,-0.372 0.18,-0.336 0.18,-0.288C0.18,-0.06 0.384,0.12 0.588,0.12C0.756,0.12 0.912,0.012 0.972,-0.156L1.704,-2.328L4.896,-2.328L5.628,-0.156ZM4.62,-3.132L1.98,-3.132L3.3,-7.128L4.62,-3.132Z" style="fill:white;fill-rule:nonzero;"/>
            <path d="M11.628,0C11.856,0 12.036,-0.18 12.036,-0.408C12.036,-0.636 11.856,-0.804 11.628,-0.804L8.34,-0.804L8.34,-8.112C8.34,-8.34 8.148,-8.532 7.92,-8.532C7.692,-8.532 7.5,-8.34 7.5,-8.112L7.5,-0.564C7.5,-0.252 7.752,0 8.064,0L11.628,0Z" style="fill:white;fill-rule:nonzero;"/>
            <path d="M17.244,0C17.472,0 17.652,-0.18 17.652,-0.408C17.652,-0.636 17.472,-0.804 17.244,-0.804L13.956,-0.804L13.956,-3.948L17.016,-3.948C17.256,-3.948 17.424,-4.128 17.424,-4.356C17.424,-4.584 17.232,-4.752 17.016,-4.752L13.956,-4.752L13.956,-7.608L17.172,-7.608C17.4,-7.608 17.58,-7.776 17.58,-8.004C17.58,-8.232 17.388,-8.412 17.172,-8.412L13.68,-8.412C13.368,-8.412 13.116,-8.16 13.116,-7.848L13.116,-0.564C13.116,-0.252 13.368,0 13.68,0L17.244,0Z" style="fill:white;fill-rule:nonzero;"/>
            <path d="M23.292,-0.072C23.364,0.048 23.496,0.12 23.628,0.12C23.868,0.12 24.048,-0.084 24.048,-0.3C24.048,-0.372 24.024,-0.444 23.988,-0.504L21.588,-4.236L23.94,-7.908C23.988,-7.98 24,-8.052 24,-8.124C24,-8.364 23.82,-8.532 23.604,-8.532C23.472,-8.532 23.34,-8.46 23.256,-8.34L21.12,-4.98L18.984,-8.34C18.9,-8.46 18.768,-8.532 18.636,-8.532C18.408,-8.532 18.228,-8.328 18.228,-8.124C18.228,-8.052 18.264,-7.968 18.3,-7.908L20.652,-4.236L18.252,-0.504C18.216,-0.444 18.192,-0.372 18.192,-0.3C18.192,-0.06 18.396,0.12 18.6,0.12C18.732,0.12 18.864,0.048 18.936,-0.072L21.12,-3.492L23.292,-0.072Z" style="fill:white;fill-rule:nonzero;"/>
            <path d="M32.652,-2.616C32.652,-2.028 32.484,-1.524 32.148,-1.188C31.8,-0.84 31.32,-0.66 30.72,-0.66C30.12,-0.66 29.64,-0.84 29.292,-1.188C28.956,-1.524 28.788,-2.028 28.788,-2.616L28.788,-8.112C28.788,-8.34 28.596,-8.532 28.368,-8.532C28.14,-8.532 27.948,-8.34 27.948,-8.112L27.948,-2.652C27.948,-1.836 28.212,-1.14 28.704,-0.648C29.208,-0.144 29.904,0.12 30.72,0.12C31.536,0.12 32.232,-0.144 32.736,-0.648C33.228,-1.14 33.492,-1.836 33.492,-2.652L33.492,-8.112C33.492,-8.34 33.3,-8.532 33.072,-8.532C32.844,-8.532 32.652,-8.34 32.652,-8.112L32.652,-2.616Z" style="fill:white;fill-rule:nonzero;"/>
            <path d="M35.112,2.268C35.112,2.496 35.292,2.676 35.52,2.676C35.748,2.676 35.928,2.496 35.928,2.268L35.928,-0.24C36.348,-0.012 36.816,0.12 37.308,0.12C38.616,0.12 39.492,-0.768 39.492,-2.076L39.492,-3.936C39.492,-5.244 38.616,-6.132 37.308,-6.132C36.684,-6.132 36.072,-6.036 35.496,-5.832C35.268,-5.748 35.112,-5.544 35.112,-5.304L35.112,2.268ZM38.676,-2.016C38.676,-1.152 38.16,-0.636 37.308,-0.636C36.792,-0.636 36.3,-0.768 35.928,-1.116L35.928,-5.172C36.372,-5.304 36.828,-5.376 37.308,-5.376C38.16,-5.376 38.676,-4.86 38.676,-3.996L38.676,-2.016Z" style="fill:white;fill-rule:nonzero;"/>
            <path d="M41.052,-0.288C41.052,-0.06 41.232,0.12 41.46,0.12C41.688,0.12 41.868,-0.06 41.868,-0.288L41.868,-8.124C41.868,-8.352 41.688,-8.532 41.46,-8.532C41.232,-8.532 41.052,-8.352 41.052,-8.124L41.052,-0.288Z" style="fill:white;fill-rule:nonzero;"/>
            <path d="M47.976,-3.816C47.976,-5.196 47.052,-6.132 45.672,-6.132C44.292,-6.132 43.368,-5.196 43.368,-3.816L43.368,-2.196C43.368,-0.816 44.292,0.12 45.672,0.12C47.052,0.12 47.976,-0.816 47.976,-2.196L47.976,-3.816ZM47.16,-2.136C47.16,-1.2 46.608,-0.636 45.672,-0.636C44.736,-0.636 44.184,-1.2 44.184,-2.136L44.184,-3.876C44.184,-4.812 44.736,-5.376 45.672,-5.376C46.608,-5.376 47.16,-4.812 47.16,-3.876L47.16,-2.136Z" style="fill:white;fill-rule:nonzero;"/>
            <path d="M53.436,-4.308C53.436,-5.532 52.476,-6.132 51.348,-6.132C50.76,-6.132 50.136,-6 49.572,-5.652C49.44,-5.568 49.368,-5.436 49.368,-5.292C49.368,-5.052 49.56,-4.908 49.776,-4.908C49.848,-4.908 49.908,-4.932 49.968,-4.968C50.424,-5.232 50.868,-5.376 51.348,-5.376C52.104,-5.376 52.62,-5.004 52.62,-4.296L52.62,-3.54L51.252,-3.54C50.52,-3.54 49.956,-3.396 49.584,-3.06C49.236,-2.736 49.056,-2.292 49.056,-1.728C49.056,-1.164 49.236,-0.708 49.584,-0.396C49.956,-0.06 50.52,0.12 51.252,0.12C51.876,0.12 52.476,0.012 53.052,-0.18C53.28,-0.252 53.436,-0.468 53.436,-0.708L53.436,-4.308ZM52.62,-0.84C52.188,-0.708 51.72,-0.636 51.252,-0.636C50.028,-0.636 49.872,-1.248 49.872,-1.728C49.872,-2.208 50.028,-2.784 51.252,-2.784L52.62,-2.784L52.62,-0.84Z" style="fill:white;fill-rule:nonzero;"/>
            <path d="M57,0.12C57.636,0.12 58.236,0.012 58.812,-0.18C59.04,-0.252 59.196,-0.468 59.196,-0.708L59.196,-8.124C59.196,-8.352 59.016,-8.532 58.788,-8.532C58.56,-8.532 58.38,-8.352 58.38,-8.124L58.38,-5.772C57.96,-6 57.492,-6.132 57,-6.132C55.668,-6.132 54.816,-5.268 54.816,-3.936L54.816,-2.076C54.816,-0.768 55.692,0.12 57,0.12ZM55.632,-3.996C55.632,-4.86 56.148,-5.376 57,-5.376C57.516,-5.376 58.008,-5.244 58.38,-4.896L58.38,-0.84C57.948,-0.708 57.48,-0.636 57,-0.636C56.148,-0.636 55.632,-1.152 55.632,-2.016L55.632,-3.996Z" style="fill:white;fill-rule:nonzero;"/>
        </g>
    </g>
</svg>
