<?xml version="1.0" encoding="UTF-8" standalone="no"?>
<!DOCTYPE svg PUBLIC "-//W3C//DTD SVG 1.1//EN" "http://www.w3.org/Graphics/SVG/1.1/DTD/svg11.dtd">
<svg width="100%" height="100%" viewBox="0 0 180 28" version="1.1" xmlns="http://www.w3.org/2000/svg" xmlns:xlink="http://www.w3.org/1999/xlink" xml:space="preserve" xmlns:serif="http://www.serif.com/" style="fill-rule:evenodd;clip-rule:evenodd;stroke-linecap:round;stroke-linejoin:round;stroke-miterlimit:1.5;">
    <g transform="matrix(2.42712,0,0,2.42712,-38.4226,0.773209)">
        <g transform="matrix(12,0,0,12,30.7966,8.54175)">
            <path d="M0.469,-0.013C0.474,0.001 0.487,0.01 0.501,0.01C0.52,0.01 0.535,-0.007 0.535,-0.024C0.535,-0.028 0.534,-0.031 0.533,-0.035L0.313,-0.685C0.308,-0.7 0.292,-0.711 0.275,-0.711C0.258,-0.711 0.242,-0.7 0.237,-0.685L0.017,-0.035C0.016,-0.031 0.015,-0.028 0.015,-0.024C0.015,-0.005 0.032,0.01 0.049,0.01C0.063,0.01 0.076,0.001 0.081,-0.013L0.142,-0.194L0.408,-0.194L0.469,-0.013ZM0.385,-0.261L0.165,-0.261L0.275,-0.594L0.385,-0.261Z" style="fill:white;fill-rule:nonzero;"/>
        </g>
        <g transform="matrix(12,0,0,12,37.3966,8.54175)">
            <path d="M0.419,-0C0.438,-0 0.453,-0.015 0.453,-0.034C0.453,-0.053 0.438,-0.067 0.419,-0.067L0.145,-0.067L0.145,-0.676C0.145,-0.695 0.129,-0.711 0.11,-0.711C0.091,-0.711 0.075,-0.695 0.075,-0.676L0.075,-0.047C0.075,-0.021 0.096,-0 0.122,-0L0.419,-0Z" style="fill:white;fill-rule:nonzero;"/>
        </g>
        <g transform="matrix(12,0,0,12,43.0126,8.54175)">
            <path d="M0.419,-0C0.438,-0 0.453,-0.015 0.453,-0.034C0.453,-0.053 0.438,-0.067 0.419,-0.067L0.145,-0.067L0.145,-0.329L0.4,-0.329C0.42,-0.329 0.434,-0.344 0.434,-0.363C0.434,-0.382 0.418,-0.396 0.4,-0.396L0.145,-0.396L0.145,-0.634L0.413,-0.634C0.432,-0.634 0.447,-0.648 0.447,-0.667C0.447,-0.686 0.431,-0.701 0.413,-0.701L0.122,-0.701C0.096,-0.701 0.075,-0.68 0.075,-0.654L0.075,-0.047C0.075,-0.021 0.096,-0 0.122,-0L0.419,-0Z" style="fill:white;fill-rule:nonzero;"/>
        </g>
        <g transform="matrix(12,0,0,12,48.8686,8.54175)">
            <path d="M0.435,-0.006C0.441,0.004 0.452,0.01 0.463,0.01C0.483,0.01 0.498,-0.007 0.498,-0.025C0.498,-0.031 0.496,-0.037 0.493,-0.042L0.293,-0.353L0.489,-0.659C0.493,-0.665 0.494,-0.671 0.494,-0.677C0.494,-0.697 0.479,-0.711 0.461,-0.711C0.45,-0.711 0.439,-0.705 0.432,-0.695L0.254,-0.415L0.076,-0.695C0.069,-0.705 0.058,-0.711 0.047,-0.711C0.028,-0.711 0.013,-0.694 0.013,-0.677C0.013,-0.671 0.016,-0.664 0.019,-0.659L0.215,-0.353L0.015,-0.042C0.012,-0.037 0.01,-0.031 0.01,-0.025C0.01,-0.005 0.027,0.01 0.044,0.01C0.055,0.01 0.066,0.004 0.072,-0.006L0.254,-0.291L0.435,-0.006Z" style="fill:white;fill-rule:nonzero;"/>
        </g>
        <g transform="matrix(12,0,0,12,57.9646,8.54175)">
            <path d="M0.457,-0.218C0.457,-0.169 0.443,-0.127 0.415,-0.099C0.386,-0.07 0.346,-0.055 0.296,-0.055C0.246,-0.055 0.206,-0.07 0.177,-0.099C0.149,-0.127 0.135,-0.169 0.135,-0.218L0.135,-0.676C0.135,-0.695 0.119,-0.711 0.1,-0.711C0.081,-0.711 0.065,-0.695 0.065,-0.676L0.065,-0.221C0.065,-0.153 0.087,-0.095 0.128,-0.054C0.17,-0.012 0.228,0.01 0.296,0.01C0.364,0.01 0.422,-0.012 0.464,-0.054C0.505,-0.095 0.527,-0.153 0.527,-0.221L0.527,-0.676C0.527,-0.695 0.511,-0.711 0.492,-0.711C0.473,-0.711 0.457,-0.695 0.457,-0.676L0.457,-0.218Z" style="fill:white;fill-rule:nonzero;"/>
        </g>
        <g transform="matrix(12,0,0,12,65.0686,8.54175)">
            <path d="M0.07,0.189C0.07,0.208 0.085,0.223 0.104,0.223C0.123,0.223 0.138,0.208 0.138,0.189L0.138,-0.02C0.173,-0.001 0.212,0.01 0.253,0.01C0.362,0.01 0.435,-0.064 0.435,-0.173L0.435,-0.328C0.435,-0.437 0.362,-0.511 0.253,-0.511C0.201,-0.511 0.15,-0.503 0.102,-0.486C0.083,-0.479 0.07,-0.462 0.07,-0.442L0.07,0.189ZM0.367,-0.168C0.367,-0.096 0.324,-0.053 0.253,-0.053C0.21,-0.053 0.169,-0.064 0.138,-0.093L0.138,-0.431C0.175,-0.442 0.213,-0.448 0.253,-0.448C0.324,-0.448 0.367,-0.405 0.367,-0.333L0.367,-0.168Z" style="fill:white;fill-rule:nonzero;"/>
        </g>
        <g transform="matrix(12,0,0,12,70.9486,8.54175)">
            <path d="M0.075,-0.024C0.075,-0.005 0.09,0.01 0.109,0.01C0.128,0.01 0.143,-0.005 0.143,-0.024L0.143,-0.677C0.143,-0.696 0.128,-0.711 0.109,-0.711C0.09,-0.711 0.075,-0.696 0.075,-0.677L0.075,-0.024Z" style="fill:white;fill-rule:nonzero;"/>
        </g>
        <g transform="matrix(12,0,0,12,73.5646,8.54175)">
            <path d="M0.434,-0.318C0.434,-0.433 0.357,-0.511 0.242,-0.511C0.127,-0.511 0.05,-0.433 0.05,-0.318L0.05,-0.183C0.05,-0.068 0.127,0.01 0.242,0.01C0.357,0.01 0.434,-0.068 0.434,-0.183L0.434,-0.318ZM0.366,-0.178C0.366,-0.1 0.32,-0.053 0.242,-0.053C0.164,-0.053 0.118,-0.1 0.118,-0.178L0.118,-0.323C0.118,-0.401 0.164,-0.448 0.242,-0.448C0.32,-0.448 0.366,-0.401 0.366,-0.323L0.366,-0.178Z" style="fill:white;fill-rule:nonzero;"/>
        </g>
        <g transform="matrix(12,0,0,12,79.3726,8.54175)">
            <path d="M0.405,-0.359C0.405,-0.461 0.325,-0.511 0.231,-0.511C0.182,-0.511 0.13,-0.5 0.083,-0.471C0.072,-0.464 0.066,-0.453 0.066,-0.441C0.066,-0.421 0.082,-0.409 0.1,-0.409C0.106,-0.409 0.111,-0.411 0.116,-0.414C0.154,-0.436 0.191,-0.448 0.231,-0.448C0.294,-0.448 0.337,-0.417 0.337,-0.358L0.337,-0.295L0.223,-0.295C0.162,-0.295 0.115,-0.283 0.084,-0.255C0.055,-0.228 0.04,-0.191 0.04,-0.144C0.04,-0.097 0.055,-0.059 0.084,-0.033C0.115,-0.005 0.162,0.01 0.223,0.01C0.275,0.01 0.325,0.001 0.373,-0.015C0.392,-0.021 0.405,-0.039 0.405,-0.059L0.405,-0.359ZM0.337,-0.07C0.301,-0.059 0.262,-0.053 0.223,-0.053C0.121,-0.053 0.108,-0.104 0.108,-0.144C0.108,-0.184 0.121,-0.232 0.223,-0.232L0.337,-0.232L0.337,-0.07Z" style="fill:white;fill-rule:nonzero;"/>
        </g>
        <g transform="matrix(12,0,0,12,85.0126,8.54175)">
            <path d="M0.232,0.01C0.285,0.01 0.335,0.001 0.383,-0.015C0.402,-0.021 0.415,-0.039 0.415,-0.059L0.415,-0.677C0.415,-0.696 0.4,-0.711 0.381,-0.711C0.362,-0.711 0.347,-0.696 0.347,-0.677L0.347,-0.481C0.312,-0.5 0.273,-0.511 0.232,-0.511C0.121,-0.511 0.05,-0.439 0.05,-0.328L0.05,-0.173C0.05,-0.064 0.123,0.01 0.232,0.01ZM0.118,-0.333C0.118,-0.405 0.161,-0.448 0.232,-0.448C0.275,-0.448 0.316,-0.437 0.347,-0.408L0.347,-0.07C0.311,-0.059 0.272,-0.053 0.232,-0.053C0.161,-0.053 0.118,-0.096 0.118,-0.168L0.118,-0.333Z" style="fill:white;fill-rule:nonzero;"/>
        </g>
    </g>
    <g transform="matrix(0.0544138,0,0,0.0544138,-0.660451,0.0700565)">
        <g transform="matrix(4.36121,0,0,4.36121,-510.236,-478.602)">
            <path d="M201.18,146.049C203.83,150.489 205.354,155.678 205.354,161.221C205.354,166.763 203.83,171.952 201.18,176.392" style="fill:none;stroke:white;stroke-width:7.61px;"/>
        </g>
        <g transform="matrix(-4.36121,0,0,4.36121,1022.24,-478.602)">
            <path d="M201.18,146.049C203.83,150.489 205.354,155.678 205.354,161.221C205.354,166.763 203.83,171.952 201.18,176.392" style="fill:none;stroke:white;stroke-width:7.61px;"/>
        </g>
        <g transform="matrix(2.09806,0,0,2.09806,-202.697,-123.896)">
            <circle cx="217.5" cy="165.947" r="31.91" style="fill:white;"/>
        </g>
        <g transform="matrix(4.36121,0,0,-4.36121,-509.371,927.633)">
            <path d="M189.776,187.326C185.585,189.594 180.788,190.881 175.693,190.881C169.986,190.881 164.653,189.266 160.127,186.468" style="fill:none;stroke:white;stroke-width:7.61px;"/>
        </g>
        <g transform="matrix(6.83758,0,0,6.83758,-945.315,-877.843)">
            <path d="M149.88,175.832C147.431,171.518 146.033,166.532 146.033,161.221C146.033,155.91 147.431,150.923 149.88,146.609" style="fill:none;stroke:white;stroke-width:4.86px;"/>
        </g>
        <g transform="matrix(-6.83758,0,0,6.83758,1454.54,-877.843)">
            <path d="M149.88,175.832C147.431,171.518 146.033,166.532 146.033,161.221C146.033,155.91 147.431,150.923 149.88,146.609" style="fill:none;stroke:white;stroke-width:4.86px;"/>
        </g>
        <g transform="matrix(1.40376,-0.00775667,-0.00775667,1.4012,-48.5673,-11.8937)">
            <path d="M137.556,359.643L257.959,257.49" style="fill:none;stroke:white;stroke-width:23.81px;"/>
        </g>
        <g transform="matrix(-1.38771,0.0058554,-0.0058554,1.38965,558.394,-9.61263)">
            <path d="M137.556,359.643L257.959,257.49" style="fill:none;stroke:white;stroke-width:23.81px;"/>
        </g>
        <g transform="matrix(1.35371,0,0,1.39462,-39.5535,-9.19925)">
            <path d="M57.719,358.643L378.94,358.643" style="fill:none;stroke:white;stroke-width:24.16px;"/>
        </g>
        <g transform="matrix(1.34752,0.0862309,0.0862309,1.23673,-72.6312,35.7348)">
            <path d="M217.5,183.409L121.25,359.643" style="fill:none;stroke:white;stroke-width:24.07px;stroke-linecap:butt;"/>
        </g>
        <g transform="matrix(-1.34752,0.0862309,-0.0862309,1.23673,584.631,35.7348)">
            <path d="M217.5,183.409L121.25,359.643" style="fill:none;stroke:white;stroke-width:24.07px;stroke-linecap:butt;"/>
        </g>
        <g transform="matrix(1.39462,0,0,1.39462,-49.0186,-10.5939)">
            <path d="M144.058,42.221C165.524,29.792 190.444,22.675 217.013,22.675C243.582,22.675 268.501,29.792 289.968,42.221" style="fill:none;stroke:white;stroke-width:23.81px;"/>
        </g>
    </g>
</svg>
