<?xml version="1.0" standalone="no"?>
<!DOCTYPE svg PUBLIC "-//W3C//DTD SVG 20010904//EN"
 "http://www.w3.org/TR/2001/REC-SVG-20010904/DTD/svg10.dtd">
<svg version="1.0" xmlns="http://www.w3.org/2000/svg"
 width="700.000000pt" height="700.000000pt" viewBox="0 0 700.000000 700.000000"
 preserveAspectRatio="xMidYMid meet">
<metadata>
Created by potrace 1.14, written by Peter Selinger 2001-2017
</metadata>
<g transform="translate(0.000000,700.000000) scale(0.100000,-0.100000)"
fill="#000000" stroke="none">
<path d="M585 6985 c-58 -15 -100 -48 -124 -98 l-21 -44 0 -3341 c1 -2728 3
-3348 14 -3373 18 -43 62 -87 105 -105 32 -14 332 -16 2942 -16 2679 0 2909 1
2941 16 49 23 96 72 107 110 5 17 9 1497 10 3376 l1 3345 -23 40 c-13 22 -42
52 -70 69 l-47 29 -2897 1 c-1989 1 -2910 -2 -2938 -9z m5207 -376 c-9 -10
-208 -165 -442 -346 -234 -181 -604 -468 -823 -639 -219 -170 -415 -322 -437
-338 l-38 -28 -137 98 c-75 55 -165 119 -200 144 -85 61 -84 58 -50 87 35 28
393 309 470 368 53 41 89 69 179 141 110 88 591 461 636 494 l48 35 406 0
c377 0 404 -1 388 -16z m-4245 -12 c15 -13 246 -180 513 -372 267 -191 545
-391 617 -444 73 -53 173 -125 223 -160 49 -35 90 -68 90 -72 0 -4 -33 -33
-72 -64 -40 -31 -88 -68 -106 -82 -42 -33 -336 -262 -502 -392 -69 -53 -231
-180 -360 -281 -258 -201 -371 -290 -470 -366 -101 -78 -503 -393 -520 -407
-40 -33 -114 -87 -119 -87 -4 0 -6 2595 -2 2728 l1 22 339 0 339 0 29 -23z
m2798 4 c-11 -10 -43 -36 -71 -57 -59 -45 -232 -180 -494 -385 -102 -80 -216
-169 -255 -199 -38 -29 -102 -80 -142 -111 l-72 -58 -353 254 c-194 139 -357
257 -363 262 -5 4 -103 75 -217 157 -115 81 -208 150 -208 152 0 2 494 4 1097
4 1077 0 1097 0 1078 -19z m1817 -1522 c0 -722 -1 -1319 -1 -1326 -1 -7 -87
49 -192 125 -105 75 -230 165 -278 198 -47 34 -97 70 -111 81 -14 11 -187 136
-385 278 -582 418 -815 586 -815 589 0 2 104 83 231 182 127 98 295 229 373
290 77 60 173 135 212 165 87 66 415 321 722 561 125 97 231 176 236 174 6 -1
9 -531 8 -1317z m-2624 82 c111 -79 199 -148 195 -152 -5 -4 -154 -121 -333
-259 -179 -139 -338 -263 -355 -275 -16 -13 -73 -57 -125 -98 -52 -40 -309
-239 -570 -442 -261 -203 -496 -385 -521 -405 -496 -381 -746 -581 -767 -613
-19 -28 -25 -51 -25 -86 0 -104 -47 -68 914 -709 481 -320 873 -585 872 -588
-1 -3 -291 -219 -645 -479 -354 -261 -647 -477 -653 -482 -5 -5 -67 -50 -138
-102 l-127 -93 -178 0 c-97 0 -193 1 -212 1 l-35 1 0 1499 0 1500 241 188
c132 103 256 200 275 215 19 15 153 120 299 234 146 113 279 217 295 230 17
13 129 101 250 195 121 94 234 182 250 195 420 332 872 679 880 676 6 -3 101
-71 213 -151z m698 -502 c1193 -858 1421 -1024 1420 -1034 0 -5 -57 -52 -126
-102 -235 -174 -1041 -768 -1276 -940 l-234 -172 -238 156 c-130 85 -290 189
-355 231 -65 43 -179 117 -255 167 -75 49 -272 177 -437 285 -341 222 -350
228 -344 233 2 2 224 175 493 383 269 208 643 499 830 646 188 146 344 267
347 267 4 1 82 -54 175 -120z m1847 -1329 l83 -60 -1 -245 c0 -146 -4 -248
-10 -254 -6 -5 -68 -55 -140 -110 -71 -55 -134 -104 -140 -108 -5 -5 -201
-155 -435 -333 -234 -179 -432 -330 -440 -337 -12 -10 -513 -393 -1075 -823
-55 -42 -274 -209 -486 -371 -212 -163 -391 -299 -398 -304 -10 -6 -871 -10
-1110 -6 l-34 1 69 49 c38 27 179 130 314 230 503 372 672 496 694 511 34 23
400 294 406 300 3 3 41 32 85 63 70 50 638 466 705 517 14 11 134 99 266 197
133 98 252 186 265 196 13 9 184 135 379 278 417 306 541 398 750 553 85 64
158 116 163 116 4 0 45 -27 90 -60z m-3829 -217 c100 -65 210 -137 246 -160
36 -23 70 -47 77 -52 7 -6 14 -11 17 -11 3 0 58 -35 123 -79 65 -43 165 -109
223 -146 217 -141 250 -162 435 -283 105 -69 218 -143 253 -164 34 -22 62 -43
62 -46 0 -4 -15 -17 -33 -30 -19 -12 -94 -67 -168 -122 -74 -55 -143 -106
-154 -114 -11 -8 -56 -41 -100 -73 l-80 -60 -785 524 c-432 288 -791 527 -798
532 -9 5 66 69 240 204 139 108 255 197 257 197 3 0 86 -53 185 -117z m3911
-1425 c0 -394 -4 -603 -10 -603 -6 0 -37 17 -70 39 -33 21 -225 143 -428 271
l-367 233 77 58 c43 33 80 61 83 64 3 3 23 18 45 35 22 16 42 31 45 35 3 3 70
55 150 115 80 60 150 113 155 117 6 4 35 27 65 51 50 39 106 82 209 159 20 15
38 27 41 28 3 0 5 -271 5 -602z m-1044 -399 c79 -50 160 -102 179 -114 19 -13
130 -83 245 -156 397 -251 540 -341 580 -368 l40 -26 0 -118 c0 -65 -3 -121
-8 -124 -7 -4 -2377 -8 -2480 -4 -11 1 16 27 70 68 48 37 129 98 178 136 50
38 209 160 353 271 145 110 359 274 475 363 117 90 215 163 218 163 3 0 71
-41 150 -91z"/>
</g>
</svg>
