<?xml version="1.0" standalone="no"?>
<!DOCTYPE svg PUBLIC "-//W3C//DTD SVG 20010904//EN"
 "http://www.w3.org/TR/2001/REC-SVG-20010904/DTD/svg10.dtd">
<svg version="1.0" xmlns="http://www.w3.org/2000/svg"
 width="700.000000pt" height="700.000000pt" viewBox="0 0 700.000000 700.000000"
 preserveAspectRatio="xMidYMid meet">
<metadata>
Created by potrace 1.14, written by Peter Selinger 2001-2017
</metadata>
<g transform="translate(0.000000,700.000000) scale(0.100000,-0.100000)"
fill="#000000" stroke="none">
<path d="M3248 6935 c-2 -2 -32 -6 -68 -9 -36 -4 -76 -8 -90 -10 -14 -3 -47
-7 -73 -11 -201 -25 -512 -114 -739 -211 -115 -49 -328 -161 -357 -187 -36
-33 -71 -115 -71 -168 0 -50 36 -132 73 -167 67 -63 186 -74 273 -26 27 15 64
35 81 45 18 10 79 39 135 65 57 25 112 50 123 55 53 24 302 100 375 114 231
45 356 58 555 59 423 1 793 -90 1189 -293 136 -69 155 -76 207 -75 94 1 162
46 203 135 49 104 11 215 -97 285 -64 42 -245 133 -352 177 -153 64 -441 150
-575 172 -19 3 -42 8 -50 10 -17 4 -57 10 -144 21 -33 4 -73 9 -90 11 -38 5
-503 12 -508 8z"/>
<path d="M3397 5924 c-1 -1 -38 -5 -81 -9 -43 -4 -88 -9 -100 -11 -12 -2 -34
-6 -51 -9 -250 -38 -652 -204 -748 -309 -108 -118 -62 -304 91 -362 63 -25
139 -14 213 30 167 100 340 162 564 203 55 10 369 12 425 3 30 -5 71 -12 90
-15 105 -17 275 -74 400 -135 108 -53 168 -61 236 -31 93 42 138 108 138 206
1 139 -80 208 -374 318 -214 80 -425 118 -673 121 -70 1 -129 1 -130 0z"/>
<path d="M1046 5518 c-102 -22 -140 -64 -241 -273 -100 -205 -153 -351 -210
-571 -37 -144 -38 -147 -55 -261 -7 -43 -14 -87 -16 -98 -19 -94 -26 -511 -11
-665 6 -69 30 -231 42 -290 2 -14 10 -50 16 -80 53 -271 259 -776 354 -872
144 -145 389 -45 386 158 0 47 -9 73 -65 183 -107 212 -164 361 -216 571 -87
346 -98 756 -30 1095 6 28 12 59 14 70 9 47 40 156 66 235 56 167 87 239 217
492 17 34 19 122 3 163 -39 102 -150 165 -254 143z"/>
<path d="M5838 5520 c-104 -18 -188 -118 -188 -226 0 -45 8 -69 56 -161 140
-270 233 -548 269 -803 3 -25 8 -52 10 -60 18 -71 25 -423 12 -573 -21 -234
-85 -499 -176 -725 -12 -29 -55 -121 -96 -204 -62 -126 -75 -159 -75 -200 0
-161 157 -270 306 -213 68 26 102 67 176 211 170 330 286 722 313 1059 3 39 8
88 11 110 6 54 5 324 -1 410 -25 312 -91 602 -202 885 -52 132 -164 359 -200
407 -46 60 -138 96 -215 83z"/>
<path d="M1905 5050 c-47 -14 -107 -72 -139 -131 -15 -30 -38 -73 -50 -95 -65
-118 -142 -347 -176 -521 -38 -196 -44 -480 -15 -658 42 -258 111 -462 228
-677 49 -90 94 -135 156 -156 147 -50 303 66 296 220 -2 43 -15 78 -67 178
-74 145 -134 314 -152 430 -3 19 -8 46 -10 60 -21 122 -22 350 -1 450 3 14 7
43 11 65 3 22 7 48 10 57 3 9 6 25 8 35 13 65 79 234 134 342 58 112 65 132
65 186 1 93 -52 174 -136 210 -34 14 -121 17 -162 5z"/>
<path d="M4945 5050 c-85 -27 -148 -118 -148 -215 -1 -55 5 -71 64 -185 63
-121 132 -305 145 -386 3 -21 12 -73 19 -114 21 -116 14 -399 -14 -525 -32
-146 -82 -284 -152 -420 -56 -108 -62 -126 -62 -180 -1 -200 238 -301 378
-160 100 99 255 485 290 721 4 21 8 49 10 62 24 146 25 418 2 559 -40 244 -85
387 -188 600 -71 148 -109 201 -162 229 -38 19 -140 27 -182 14z"/>
<path d="M3306 4834 c-240 -46 -442 -174 -580 -367 -81 -113 -142 -258 -162
-382 -12 -81 -8 -265 9 -340 50 -230 185 -431 381 -569 20 -14 18 -18 -339
-671 -12 -22 -36 -65 -52 -95 -40 -73 -149 -272 -183 -335 -22 -40 -456 -833
-580 -1060 -15 -27 -47 -86 -70 -130 -96 -177 -192 -350 -200 -358 -4 -5 -246
-10 -536 -10 l-529 -2 -40 -24 c-78 -48 -118 -115 -118 -198 0 -100 53 -183
142 -221 32 -13 388 -15 3052 -15 l3017 0 46 22 c171 83 173 326 3 418 -29 16
-77 18 -555 20 -288 1 -529 4 -537 6 -7 3 -19 18 -27 34 -22 42 -105 197 -161
298 -27 50 -62 113 -77 140 -32 58 -309 567 -564 1035 -97 179 -182 334 -188
345 -11 19 -121 219 -195 355 -20 36 -53 96 -74 133 -22 38 -39 70 -39 72 0 3
-32 62 -71 132 l-70 128 23 18 c162 127 301 352 332 537 3 19 8 49 11 65 11
62 5 214 -10 291 -78 382 -342 643 -740 730 -57 12 -250 11 -319 -2z m458
-2149 c87 -159 169 -309 182 -332 l23 -42 -102 -88 c-56 -48 -104 -90 -107
-93 -3 -3 -59 -50 -125 -105 -66 -55 -131 -110 -144 -122 l-24 -21 -102 86
c-55 48 -125 107 -155 132 -30 25 -87 74 -127 109 l-73 63 41 77 c23 42 57
102 76 134 18 32 33 60 33 63 0 3 20 39 44 82 23 42 64 115 89 162 25 47 63
117 84 155 l38 70 80 5 c77 5 81 4 96 -20 8 -14 87 -155 173 -315z m595 -1090
c24 -44 82 -150 129 -235 134 -244 138 -251 177 -325 21 -38 58 -105 82 -149
23 -43 43 -81 43 -83 0 -3 9 -18 21 -35 12 -16 19 -31 17 -33 -2 -3 -76 57
-164 131 -87 75 -181 155 -208 177 -27 23 -54 47 -60 52 -6 6 -67 57 -136 115
-69 57 -130 109 -136 115 -6 5 -22 19 -35 30 -13 11 -79 67 -147 124 l-123
104 23 21 c13 12 82 70 153 130 72 60 135 114 140 121 6 6 21 18 34 28 l25 16
61 -112 c33 -62 80 -148 104 -192z m-1400 123 c88 -75 157 -138 152 -140 -5
-2 -35 -26 -67 -54 -82 -71 -785 -666 -809 -684 -18 -13 -19 -13 -9 0 6 8 31
51 54 95 24 44 67 123 95 175 29 52 67 122 85 155 18 33 70 128 115 210 45 83
101 184 123 225 81 149 87 160 93 157 4 -1 79 -64 168 -139z m537 -455 c10
-10 60 -52 109 -93 50 -41 92 -77 95 -80 4 -4 116 -99 229 -195 13 -11 29 -25
35 -30 6 -6 67 -58 136 -115 146 -123 162 -137 215 -184 22 -19 43 -36 48 -36
4 0 7 -3 7 -7 0 -5 -404 -8 -898 -7 -493 1 -897 4 -897 8 0 3 41 41 90 82 96
81 142 121 271 230 44 38 104 89 134 114 29 25 128 109 219 187 91 78 171 142
177 142 5 1 19 -7 30 -16z"/>
</g>
</svg>
