<?xml version="1.0" standalone="no"?>
<!DOCTYPE svg PUBLIC "-//W3C//DTD SVG 20010904//EN"
 "http://www.w3.org/TR/2001/REC-SVG-20010904/DTD/svg10.dtd">
<svg version="1.0" xmlns="http://www.w3.org/2000/svg"
 width="700.000000pt" height="700.000000pt" viewBox="0 0 700.000000 700.000000"
 preserveAspectRatio="xMidYMid meet">
<metadata>
Created by potrace 1.14, written by Peter Selinger 2001-2017
</metadata>
<g transform="translate(0.000000,700.000000) scale(0.100000,-0.100000)"
fill="#000000" stroke="none">
<path d="M3397 6964 c-1 -1 -43 -4 -92 -8 -304 -20 -595 -91 -890 -214 -91
-38 -292 -146 -318 -170 -39 -36 -53 -68 -56 -122 -3 -57 12 -96 51 -137 58
-60 137 -71 219 -29 230 118 345 168 492 212 101 31 226 60 291 69 27 3 52 8
55 10 16 10 186 20 341 20 202 0 271 -6 470 -40 124 -22 315 -81 470 -147 81
-34 242 -115 275 -138 6 -4 33 -8 62 -9 164 -7 251 184 138 306 -47 50 -321
181 -525 251 -153 52 -364 103 -490 117 -25 3 -54 7 -65 10 -47 10 -419 26
-428 19z"/>
<path d="M3548 6036 c-1 -2 -55 -6 -118 -9 -63 -3 -126 -8 -140 -11 -14 -2
-41 -7 -60 -10 -160 -25 -377 -98 -530 -179 -136 -72 -172 -105 -189 -173 -29
-115 56 -224 175 -224 37 0 66 11 148 54 170 92 362 155 529 174 106 12 327 6
424 -11 121 -22 266 -69 378 -122 102 -49 140 -58 192 -43 117 32 169 167 104
269 -22 36 -45 54 -108 87 -130 67 -328 137 -453 158 -14 3 -50 9 -80 15 -30
5 -98 12 -150 15 -52 3 -100 7 -107 9 -6 2 -13 2 -15 1z"/>
<path d="M1300 5662 c-101 -14 -124 -38 -218 -227 -309 -623 -369 -1333 -167
-1998 73 -241 202 -524 272 -594 86 -87 225 -64 284 47 33 62 25 112 -37 235
-148 291 -233 576 -261 872 -14 146 -5 535 13 564 1 3 6 28 9 55 15 120 85
368 141 504 10 25 47 102 82 171 67 134 79 176 68 234 -14 73 -114 147 -186
137z"/>
<path d="M5715 5664 c-5 -1 -27 -5 -48 -9 -45 -7 -105 -57 -123 -102 -28 -66
-19 -105 61 -266 66 -133 157 -365 169 -430 2 -12 11 -49 19 -82 20 -76 45
-235 56 -345 8 -85 6 -406 -3 -446 -2 -11 -7 -46 -10 -76 -24 -228 -120 -529
-247 -775 -62 -121 -72 -168 -48 -230 33 -89 150 -137 240 -99 45 19 70 47
116 131 136 246 255 604 293 875 6 41 12 91 15 110 14 103 20 372 10 495 -8
99 -16 179 -20 195 -2 8 -7 35 -10 60 -3 25 -8 52 -10 60 -2 8 -7 29 -10 45
-9 56 -14 75 -39 167 -29 105 -75 242 -112 332 -50 119 -146 302 -176 333 -29
30 -100 63 -123 57z"/>
<path d="M2051 5219 c-46 -20 -78 -63 -135 -176 -97 -194 -162 -409 -184 -608
-14 -132 -6 -452 12 -506 3 -8 7 -30 10 -49 27 -181 171 -534 252 -615 84 -85
229 -61 285 47 34 66 26 113 -40 245 -70 140 -101 224 -130 353 -76 339 -33
666 131 989 74 145 78 193 20 270 -48 65 -141 86 -221 50z"/>
<path d="M4865 5229 c-101 -29 -157 -180 -98 -266 32 -46 99 -192 128 -277 53
-162 70 -276 69 -476 0 -141 -5 -187 -26 -280 -5 -25 -11 -52 -13 -61 -15 -73
-86 -253 -128 -329 -44 -77 -51 -97 -53 -140 -4 -105 81 -189 186 -185 94 3
138 48 223 225 81 169 141 363 162 525 3 28 8 66 11 84 8 51 8 265 0 351 -18
195 -80 415 -166 596 -63 133 -105 197 -146 219 -38 20 -105 27 -149 14z"/>
<path d="M3400 5067 c-3 -3 -23 -7 -45 -10 -151 -21 -335 -117 -454 -236 -326
-326 -324 -860 4 -1187 34 -34 85 -77 112 -95 l51 -34 -85 -155 c-47 -85 -153
-281 -238 -435 -84 -154 -170 -311 -190 -350 -21 -38 -41 -74 -45 -80 -4 -5
-29 -50 -55 -100 -27 -49 -83 -154 -126 -232 -43 -78 -101 -186 -130 -240 -29
-54 -55 -102 -59 -108 -5 -5 -28 -48 -53 -95 -25 -47 -115 -211 -199 -365
l-153 -280 -491 -1 c-487 -1 -491 -1 -530 -23 -51 -29 -83 -76 -93 -140 -11
-70 19 -138 80 -178 l43 -28 2770 -1 c2991 -2 2806 -5 2865 49 57 52 73 155
36 227 -21 40 -73 77 -120 87 -22 5 -248 8 -502 7 -254 0 -466 2 -471 5 -8 6
-36 54 -114 201 -17 30 -40 73 -53 95 -12 22 -39 72 -60 110 -20 39 -50 93
-65 120 -41 75 -149 273 -181 333 -16 28 -42 76 -59 106 -16 30 -40 74 -53 98
-30 55 -74 135 -150 273 -33 61 -72 133 -87 160 -15 28 -45 82 -65 120 -21 39
-76 140 -123 225 -47 85 -101 184 -120 220 -20 36 -77 141 -128 234 l-93 169
47 37 c141 111 240 262 293 448 32 110 32 313 0 427 -41 146 -113 268 -221
376 -120 121 -266 200 -435 234 -41 9 -249 18 -255 12z m271 -1744 c23 -43 52
-96 64 -118 134 -243 255 -467 255 -473 -1 -4 -41 -40 -89 -80 -48 -40 -97
-81 -107 -90 -10 -10 -75 -65 -144 -122 -69 -58 -131 -111 -139 -118 -14 -13
-17 -11 -66 33 -7 6 -100 84 -208 175 l-196 165 47 85 c25 47 54 101 65 120
22 42 47 87 106 195 24 44 60 109 79 145 20 36 45 83 58 105 l22 40 98 6 c55
3 102 6 106 7 3 1 25 -33 49 -75z m552 -1010 c99 -184 129 -240 161 -298 19
-33 50 -91 71 -130 21 -38 45 -83 55 -100 10 -16 34 -61 55 -100 41 -75 126
-231 167 -305 14 -25 47 -85 74 -135 l48 -90 -69 61 c-39 34 -164 141 -280
239 -115 97 -221 187 -235 199 -14 11 -68 57 -120 101 -89 75 -138 116 -164
140 -6 6 -38 32 -71 60 -33 27 -77 65 -97 84 l-38 34 33 27 c17 15 104 89 192
164 88 75 162 136 165 136 3 0 27 -39 53 -87z m-1323 26 c3 -3 41 -36 85 -74
44 -37 103 -86 130 -110 28 -24 62 -52 75 -64 l25 -21 -21 -17 c-38 -31 -138
-116 -179 -153 -22 -19 -65 -55 -95 -80 -86 -72 -344 -291 -430 -365 -25 -22
-70 -60 -100 -85 -30 -25 -72 -61 -94 -80 l-39 -35 18 35 c10 19 110 204 223
410 112 206 218 400 234 430 134 245 131 240 147 227 9 -6 18 -15 21 -18z
m700 -595 c344 -292 693 -588 725 -615 11 -9 33 -28 49 -41 l29 -25 -899 2
c-494 1 -900 3 -902 3 -1 1 86 77 195 169 109 92 200 169 203 172 3 4 32 28
65 56 33 27 62 52 65 55 3 3 48 41 100 85 52 44 100 84 106 90 22 19 109 93
134 113 14 11 29 18 35 14 5 -3 48 -38 95 -78z"/>
<path d="M2474 405 c-150 -54 -171 -253 -36 -332 l46 -27 1025 -1 c564 0 1042
3 1061 8 129 32 180 194 94 297 -58 69 22 64 -1125 65 -699 1 -1046 -2 -1065
-10z"/>
</g>
</svg>
